
<svg width="13px" height="12px" viewBox="0 0 13 12" version="1.1" xmlns="http://www.w3.org/2000/svg" xmlns:xlink="http://www.w3.org/1999/xlink">
    <!-- Generator: Sketch 48 (47235) - http://www.bohemiancoding.com/sketch -->
    <desc>Created with Sketch.</desc>
    <defs></defs>
    <g id="Page-1" stroke="none" stroke-width="1" fill="none" fill-rule="evenodd">
        <path d="M1.5,4 L2.5,4 L2.5,3 C2.5,1.61928813 3.61928813,0.5 5,0.5 L8,0.5 C9.38071187,0.5 10.5,1.61928813 10.5,3 L10.5,4 L11.5,4 L13,4 L13,5 L11.5,5 L11.5,9 C11.5,10.3807119 10.3807119,11.5 9,11.5 L4,11.5 C2.61928813,11.5 1.5,10.3807119 1.5,9 L1.5,5 L0,5 L0,4 L1.5,4 Z M10.5,5 L2.5,5 L2.5,9 C2.5,9.82842712 3.17157288,10.5 4,10.5 L9,10.5 C9.82842712,10.5 10.5,9.82842712 10.5,9 L10.5,5 Z M9.5,4 L9.5,3 C9.5,2.17157288 8.82842712,1.5 8,1.5 L5,1.5 C4.17157288,1.5 3.5,2.17157288 3.5,3 L3.5,4 L9.5,4 Z M5,6 L6,6 L6,9 L5,9 L5,6 Z M7,6 L8,6 L8,9 L7,9 L7,6 Z" id="Combined-Shape" fill="#000000" fill-rule="nonzero"></path>
    </g>
</svg>