<svg xmlns="http://www.w3.org/2000/svg" width="18" height="18" viewBox="0 0 18 18">
    <path id="theme_color" fill="#000" fill-rule="evenodd" d="M7.925 7.86H13.1v4.524H8.924v.845h-.999v-5.37zm-.888-2.63h7.132v1.008H7.037V5.23zm.458-1.731V2.491H16v10.915c0 1.053-.481 1.585-1.443 1.594-.823 0-1.65-.005-2.483-.014a6.276 6.276 0 0 0-.222-1.09c.897.064 1.688.096 2.372.096.463 0 .694-.26.694-.777V3.499H7.495zm-.263 8.476c.027.472.06.863.097 1.172-1.175.745-2.035 1.349-2.58 1.812l-.653-.913c.315-.245.472-.654.472-1.226V7.464H3v-.98h2.636v6.581c.648-.427 1.18-.79 1.596-1.09zM4.415 2a100.404 100.404 0 0 1 2.192 2.262l-.97.804a26.337 26.337 0 0 0-2.068-2.344L4.415 2zm7.686 9.43V8.813H8.924v2.617h3.177z"/>
</svg>
