
<svg width="13px" height="13px" viewBox="0 0 13 13" version="1.1" xmlns="http://www.w3.org/2000/svg" xmlns:xlink="http://www.w3.org/1999/xlink">
    <!-- Generator: Sketch 48 (47235) - http://www.bohemiancoding.com/sketch -->
    <desc>Created with Sketch.</desc>
    <defs></defs>
    <g id="Page-1" stroke="none" stroke-width="1" fill="none" fill-rule="evenodd">
        <path d="M4.925,5.86 L10.1,5.86 L10.1,10.384 L5.924,10.384 L5.924,11.229 L4.925,11.229 L4.925,5.859 L4.925,5.86 Z M4.037,3.23 L11.169,3.23 L11.169,4.238 L4.037,4.238 L4.037,3.23 Z M4.495,1.499 L4.495,0.491 L13,0.491 L13,11.406 C13,12.459 12.519,12.991 11.557,13 C10.734,13 9.907,12.995 9.074,12.986 C9.0324085,12.6168119 8.95811676,12.2520462 8.852,11.896 C9.749,11.96 10.54,11.992 11.224,11.992 C11.687,11.992 11.918,11.732 11.918,11.215 L11.918,1.499 L4.495,1.499 Z M4.232,9.975 C4.259,10.447 4.292,10.838 4.329,11.147 C3.154,11.892 2.294,12.496 1.749,12.959 L1.096,12.046 C1.411,11.801 1.568,11.392 1.568,10.82 L1.568,5.464 L0,5.464 L0,4.484 L2.636,4.484 L2.636,11.065 C3.284,10.638 3.816,10.275 4.232,9.975 Z M1.415,0 C2.15744957,0.742491788 2.88820614,1.49658456 3.607,2.262 L2.637,3.066 C1.99468249,2.24441232 1.30413323,1.46170077 0.569,0.722 L1.415,0 Z M9.101,9.43 L9.101,6.813 L5.924,6.813 L5.924,9.43 L9.101,9.43 Z" id="theme_color" fill="#000000"></path>
    </g>
</svg>