<svg xmlns="http://www.w3.org/2000/svg" width="18" height="18" viewBox="0 0 18 18">
    <path id="theme_color" fill="#000" fill-rule="nonzero" d="M7.001 6.509a.5.5 0 1 1-1 0V2.467C6.001 1.656 6.665 1 7.48 1h4.044C12.337 1 13 1.658 13 2.467v3.955C13 7.702 14.24 9 15.521 9c.42 0 .82.177 1.1.487a1.46 1.46 0 0 1-.116 2.076l-6.024 5.065a1.488 1.488 0 0 1-1.968 0l-6.018-5.065A1.463 1.463 0 0 1 2 10.468C2 9.656 2.663 9 3.479 9h3.647a.5.5 0 1 1 0 1H3.48a.473.473 0 0 0-.479.468c0 .131.057.257.157.346l6.019 5.065c.182.161.46.161.643 0l6.023-5.065a.46.46 0 0 0 .038-.656.484.484 0 0 0-.359-.158C13.688 10 12 8.255 12 6.422V2.467A.474.474 0 0 0 11.523 2H7.479A.473.473 0 0 0 7 2.467v4.042z"/>
</svg>
