<svg xmlns="http://www.w3.org/2000/svg" width="18" height="18" viewBox="0 0 18 18">
    <path id="theme_color" fill="#000" fill-rule="evenodd" d="M15.729 13H17l-3.484 3H12l2.323-2c-2.121-.016-3.611-1.042-4.541-2.467-.02-.032-.07-.11-.14-.225l.594-.948c.2.329.346.57.383.626.792 1.213 2.06 2.003 3.915 2.012h1.195V13zm0-8h-1.261c-1.802 0-3.083 1.202-4.21 3.168a272.13 272.13 0 0 1-2.026 3.365c-.964 1.478-2.53 2.527-4.78 2.465-.4-.012-1.415-.002-1.452 0v-1a54.957 54.957 0 0 1 1.48 0c1.854.051 3.124-.8 3.915-2.012.138-.21 1.794-2.964 1.995-3.315 1.264-2.204 2.74-3.61 4.935-3.67L12 2h1.516L17 5h-1.271zM8.51 7.475l-.598.957a25.371 25.371 0 0 1-.155-.264C6.63 6.202 5.35 5 3.547 5H2V4h1.546C5.754 4 7.244 5.337 8.51 7.475z"/>
</svg>
