<?xml version="1.0" encoding="UTF-8"?>
<svg width="18px" height="18px" viewBox="0 0 18 18" version="1.1" xmlns="http://www.w3.org/2000/svg" xmlns:xlink="http://www.w3.org/1999/xlink">
    <!-- Generator: Sketch 63.1 (92452) - https://sketch.com -->
    <title>Rectangle Copy 55</title>
    <desc>Created with Sketch.</desc>
    <g id="theme_color" stroke="none" stroke-width="1" fill="none" fill-rule="evenodd">
        <g id="导航控件" transform="translate(-547.000000, -877.000000)" fill="#000000">
            <path d="M563.900433,883.202778 C564.067249,883.424821 564.019576,883.737907 563.793953,883.902077 C562.787341,884.634514 562.193472,885.793471 562.193472,887.025475 L562.193472,890.669954 C562.193472,890.707856 562.189187,890.744773 562.181067,890.780261 C562.189319,890.851707 562.193472,890.925376 562.193472,891 C562.193472,892.104569 561.283605,893 560.161227,893 C559.038849,893 558.128981,892.104569 558.128981,891 C558.128981,889.895431 559.038849,889 560.161227,889 C560.531728,889 560.879073,889.097574 561.178176,889.268035 L561.177349,887.025475 C561.177349,885.476304 561.924104,884.018984 563.189859,883.097988 C563.415482,882.933818 563.733617,882.980735 563.900433,883.202778 Z M555.664477,891 C555.94062,891 556.164477,891.223858 556.164477,891.5 C556.164477,891.776142 555.94062,892 555.664477,892 L549.5,892 C549.223858,892 549,891.776142 549,891.5 C549,891.223858 549.223858,891 549.5,891 L555.664477,891 Z M558.306396,886 C558.582539,886 558.806396,886.223858 558.806396,886.5 C558.806396,886.776142 558.582539,887 558.306396,887 L549.5,887 C549.223858,887 549,886.776142 549,886.5 C549,886.223858 549.223858,886 549.5,886 L558.306396,886 Z M561.828955,881 C562.105097,881 562.328955,881.223858 562.328955,881.5 C562.328955,881.776142 562.105097,882 561.828955,882 L549.5,882 C549.223858,882 549,881.776142 549,881.5 C549,881.223858 549.223858,881 549.5,881 L561.828955,881 Z" id="Combined-Shape-Copy-32"></path>
        </g>
    </g>
</svg>