
<svg width="15px" height="12px" viewBox="0 0 15 12" version="1.1" xmlns="http://www.w3.org/2000/svg" xmlns:xlink="http://www.w3.org/1999/xlink">
    <!-- Generator: Sketch 48 (47235) - http://www.bohemiancoding.com/sketch -->
    <desc>Created with Sketch.</desc>
    <defs></defs>
    <g id="Page-1" stroke="none" stroke-width="1" fill="none" fill-rule="evenodd">
        <path d="M14.900433,2.202778 C15.067249,2.424821 15.019576,2.737907 14.793953,2.902077 C13.787341,3.634514 13.193472,4.793471 13.193472,6.025475 L13.193472,9.669954 C13.193472,9.707856 13.189187,9.744773 13.181067,9.780261 C13.189319,9.851707 13.193472,9.925376 13.193472,10 C13.193472,11.104569 12.283605,12 11.161227,12 C10.038849,12 9.128981,11.104569 9.128981,10 C9.128981,8.895431 10.038849,8 11.161227,8 C11.531728,8 11.879073,8.097574 12.178176,8.268035 L12.177349,6.025475 C12.177349,4.476304 12.924104,3.018984 14.189859,2.097988 C14.415482,1.933818 14.733617,1.980735 14.900433,2.202778 Z M6.664477,10 C6.94062,10 7.164477,10.223858 7.164477,10.5 C7.164477,10.776142 6.94062,11 6.664477,11 L0.5,11 C0.223858,11 0,10.776142 0,10.5 C0,10.223858 0.223858,10 0.5,10 L6.664477,10 Z M9.306396,5 C9.582539,5 9.806396,5.223858 9.806396,5.5 C9.806396,5.776142 9.582539,6 9.306396,6 L0.5,6 C0.223858,6 0,5.776142 0,5.5 C0,5.223858 0.223858,5 0.5,5 L9.306396,5 Z M12.828955,0 C13.105097,0 13.328955,0.223858 13.328955,0.5 C13.328955,0.776142 13.105097,1 12.828955,1 L0.5,1 C0.223858,1 0,0.776142 0,0.5 C0,0.223858 0.223858,0 0.5,0 L12.828955,0 Z" id="Combined-Shape-Copy-32" fill="#000000" fill-rule="nonzero"></path>
    </g>
</svg>