<svg xmlns="http://www.w3.org/2000/svg" width="18" height="18" viewBox="0 0 18 18">
    <path id="theme_color" fill="#000" fill-rule="nonzero" d="M3 12.01h3.218L10 14.598V3.403L6.218 6H3v6.01zm2.922-6.997l4.306-2.933a.504.504 0 0 1 .691.145.49.49 0 0 1 .081.269v13.012a.497.497 0 0 1-.5.494.504.504 0 0 1-.272-.08L5.922 13H2.5a.497.497 0 0 1-.5-.494V5.506c0-.272.224-.493.5-.493h3.422zm6.886-.402a.49.49 0 0 1-.192-.672.503.503 0 0 1 .68-.19C15.747 5.104 17 7.032 17 9.483c0 2.443-1.243 4.449-3.679 5.98a.504.504 0 0 1-.69-.152.49.49 0 0 1 .153-.682C14.945 13.271 16 11.569 16 9.483c0-2.077-1.045-3.685-3.192-4.872z"/>
</svg>
