<svg xmlns="http://www.w3.org/2000/svg" width="18" height="18" viewBox="0 0 18 18">
    <path id="theme_color" fill="#000" fill-rule="nonzero" d="M2.003 12.01h3.228l3.793 2.587V3.403L5.23 6H2.003v6.01zm2.93-6.997l4.32-2.933a.506.506 0 0 1 .693.145c.053.08.08.174.08.269v13.012a.498.498 0 0 1-.5.494.507.507 0 0 1-.274-.08L4.934 13H1.5A.498.498 0 0 1 1 12.505V5.506c0-.272.225-.493.501-.493h3.433zm10.793 3.961l2.127 2.121.001.001a.5.5 0 0 1 0 .706l-.002.002a.5.5 0 0 1-.706 0l-2.13-2.123-2.129 2.123a.5.5 0 0 1-.706 0l-.002-.002a.5.5 0 0 1 0-.706l2.128-2.122-2.128-2.121v-.001a.5.5 0 0 1 0-.706l.002-.002a.5.5 0 0 1 .706 0l2.13 2.123 2.129-2.123a.5.5 0 0 1 .706 0l.001.002a.5.5 0 0 1 0 .707l-2.127 2.121z"/>
</svg>
