
<svg width="14px" height="12px" viewBox="0 0 14 12" version="1.1" xmlns="http://www.w3.org/2000/svg" xmlns:xlink="http://www.w3.org/1999/xlink">
    <!-- Generator: Sketch 48 (47235) - http://www.bohemiancoding.com/sketch -->
    <desc>Created with Sketch.</desc>
    <defs></defs>
    <g id="Page-1" stroke="none" stroke-width="1" fill="none" fill-rule="evenodd">
        <path d="M12.13125,-6.0936145e-11 C13.1633321,-6.0936145e-11 14,0.80588745 14,1.8 L14,10.2 C14,11.1941125 13.1633321,12 12.13125,12 L1.86875,12 C0.836667874,12 0,11.1941125 0,10.2 L0,1.8 C0,0.80588745 0.836667874,-6.0936145e-11 1.86875,-6.0936145e-11 L12.13125,-6.0936145e-11 Z M13,4.419 L7.05887505,8 L1,4.515 L1,10.1693227 C1,10.5928031 1.33141525,10.9422696 1.75977585,10.9935278 L1.86875,11 L12.13125,11 C12.5741399,11 12.9396236,10.6831089 12.9932312,10.2735211 L13,10.1693227 L13,4.419 Z M12.13125,1 L1.86875,1 C1.42586011,1 1.06037641,1.31689108 1.0067688,1.7264789 L1,1.83067729 L1,3.379 L7.04897791,6.85684471 L13,3.27 L13,1.83067729 C13,1.40719692 12.6685847,1.05773043 12.2402242,1.00647216 L12.13125,1 Z" id="形状结合" fill="#000000" fill-rule="nonzero"></path>
    </g>
</svg>