
<svg width="13px" height="11px" viewBox="0 0 13 11" version="1.1" xmlns="http://www.w3.org/2000/svg" xmlns:xlink="http://www.w3.org/1999/xlink">
    <!-- Generator: Sketch 48 (47235) - http://www.bohemiancoding.com/sketch -->
    <desc>Created with Sketch.</desc>
    <defs></defs>
    <g id="Page-1" stroke="none" stroke-width="1" fill="none" fill-rule="evenodd">
        <path d="M12.5,0 L0.5,0 C0.223857625,0 0,0.223857625 0,0.5 C0,0.776142375 0.223857625,1 0.5,1 L12.5,1 C12.7761424,1 13,0.776142375 13,0.5 C13,0.223857625 12.7761424,0 12.5,0 Z M12.5,5 L0.5,5 C0.223857625,5 0,5.22385763 0,5.5 C0,5.77614237 0.223857625,6 0.5,6 L12.5,6 C12.7761424,6 13,5.77614237 13,5.5 C13,5.22385763 12.7761424,5 12.5,5 Z M12.5,10 L0.5,10 C0.223857625,10 0,10.2238576 0,10.5 C0,10.7761424 0.223857625,11 0.5,11 L12.5,11 C12.7761424,11 13,10.7761424 13,10.5 C13,10.2238576 12.7761424,10 12.5,10 Z" id="theme_color" fill="#000000"></path>
    </g>
</svg>