
<svg width="14px" height="12px" viewBox="0 0 14 12" version="1.1" xmlns="http://www.w3.org/2000/svg" xmlns:xlink="http://www.w3.org/1999/xlink">
    <!-- Generator: Sketch 48 (47235) - http://www.bohemiancoding.com/sketch -->
    <desc>Created with Sketch.</desc>
    <defs></defs>
    <g id="Page-1" stroke="none" stroke-width="1" fill="none" fill-rule="evenodd">
        <path d="M2.966,0 L11.033,0 C11.298,0 11.553,0.105 11.74,0.293 L13.707,2.261 C13.9192007,2.47279988 14.0251753,2.76863492 13.9957264,3.06699896 C13.9662774,3.36536301 13.8045126,3.63477182 13.555,3.801 L11.74,5.01 L11.74,11 C11.74,11.5522847 11.2922847,12 10.74,12 L3.26,12 C2.70771525,12 2.26,11.5522847 2.26,11 L2.26,5.01 L0.446,3.8 C0.196836094,3.63374441 0.0353210884,3.36455104 0.00588023971,3.06646245 C-0.023560609,2.76837385 0.0821734865,2.47278551 0.294,2.261 L2.26,0.293 C2.44718547,0.105602483 2.70112987,0.000211960419 2.966,0 Z M1,2.968 L2.815,4.178 C3.09306972,4.36352458 3.26005002,4.67572147 3.26,5.01 L3.26,11 L10.741,11 L10.741,5.01 C10.7411728,4.67553181 10.9085496,4.36329535 11.187,4.178 L13,2.968 L11.033,1 L2.966,1 L1,2.968 Z" id="theme_color" fill="#000000" fill-rule="nonzero"></path>
    </g>
</svg>