
<svg width="15px" height="14px" viewBox="0 0 15 14" version="1.1" xmlns="http://www.w3.org/2000/svg" xmlns:xlink="http://www.w3.org/1999/xlink">
    <!-- Generator: Sketch 48 (47235) - http://www.bohemiancoding.com/sketch -->
    <desc>Created with Sketch.</desc>
    <defs></defs>
    <g id="Page-1" stroke="none" stroke-width="1" fill="none" fill-rule="evenodd">
        <path d="M4.109375,10.222656 L4.109375,11.152344 L2.144531,11.152344 C1.585938,11.152344 1.117188,10.96875 0.734375,10.605469 C0.351562,10.238281 0.160156,9.796875 0.160156,9.277344 L0.160156,2.652344 C0.160156,2.132812 0.351562,1.6875 0.734375,1.324219 C1.117188,0.960938 1.585938,0.777344 2.144531,0.777344 L10.0625,0.777344 C10.609375,0.777344 11.074219,0.960938 11.457031,1.324219 C11.839844,1.6875 12.03125,2.132812 12.03125,2.652344 L12.03125,7.382812 L11.054688,7.382812 L11.054688,2.652344 C11.054688,2.398438 10.957031,2.179688 10.761719,1.996094 C10.5625,1.8125 10.332031,1.722656 10.0625,1.722656 L2.144531,1.722656 C1.863281,1.722656 1.628906,1.8125 1.4375,1.996094 C1.246094,2.179688 1.152344,2.398438 1.152344,2.652344 L1.152344,9.277344 C1.152344,9.53125 1.246094,9.753906 1.4375,9.941406 C1.628906,10.128906 1.863281,10.222656 2.144531,10.222656 L4.109375,10.222656 Z M6.09375,8.328125 L13.023438,8.328125 C13.300781,8.328125 13.535156,8.421875 13.726562,8.605469 C13.917969,8.785156 14.015625,9.011719 14.015625,9.277344 L14.015625,13.046875 C14.015625,13.3125 13.917969,13.535156 13.726562,13.71875 C13.535156,13.898438 13.300781,13.992188 13.023438,13.992188 L6.09375,13.992188 C5.828125,13.992188 5.597656,13.898438 5.398438,13.71875 C5.199219,13.535156 5.101562,13.3125 5.101562,13.046875 L5.101562,9.277344 C5.101562,9.011719 5.199219,8.785156 5.398438,8.605469 C5.597656,8.421875 5.828125,8.328125 6.09375,8.328125 Z M6.601562,9.277344 C6.460938,9.277344 6.339844,9.320312 6.242188,9.410156 C6.144531,9.496094 6.09375,9.609375 6.09375,9.742188 L6.09375,12.578125 C6.09375,12.710938 6.144531,12.824219 6.242188,12.914062 C6.339844,13 6.460938,13.046875 6.601562,13.046875 L12.535156,13.046875 C12.675781,13.046875 12.792969,13 12.882812,12.914062 C12.976562,12.824219 13.023438,12.710938 13.023438,12.578125 L13.023438,9.742188 C13.023438,9.609375 12.976562,9.496094 12.882812,9.410156 C12.792969,9.320312 12.675781,9.277344 12.535156,9.277344 L6.601562,9.277344 Z" id="Shape" fill="#000000" fill-rule="nonzero"></path>
    </g>
</svg>