
<svg width="17px" height="17px" viewBox="0 0 17 17" version="1.1" xmlns="http://www.w3.org/2000/svg" xmlns:xlink="http://www.w3.org/1999/xlink">
    <!-- Generator: Sketch 48 (47235) - http://www.bohemiancoding.com/sketch -->
    <desc>Created with Sketch.</desc>
    <defs></defs>
    <g id="Page-1" stroke="none" stroke-width="1" fill="none" fill-rule="evenodd">
        <path d="M8.5,17 C3.80557963,17 0,13.1944204 0,8.5 C0,3.80557963 3.80557963,0 8.5,0 C13.1944204,0 17,3.80557963 17,8.5 C17,13.1944204 13.1944204,17 8.5,17 Z M8.5,15 C12.0898509,15 15,12.0898509 15,8.5 C15,4.91014913 12.0898509,2 8.5,2 C4.91014913,2 2,4.91014913 2,8.5 C2,12.0898509 4.91014913,15 8.5,15 Z" id="Oval" fill="#000000" fill-rule="nonzero"></path>
        <path d="M8.5,13 C6.01471863,13 4,10.9852814 4,8.5 C4,6.01471863 6.01471863,4 8.5,4 C10.9852814,4 13,6.01471863 13,8.5 C13,10.9852814 10.9852814,13 8.5,13 Z M8.5,11 C9.88071187,11 11,9.88071187 11,8.5 C11,7.11928813 9.88071187,6 8.5,6 C7.11928813,6 6,7.11928813 6,8.5 C6,9.88071187 7.11928813,11 8.5,11 Z" id="Combined-Shape" fill="#000000"></path>
        <path d="M8.94712202,7.8611232 L13.154757,16.2763932 C13.2782516,16.5233825 13.1781395,16.823719 12.9311502,16.9472136 C12.8617225,16.9819275 12.785166,17 12.7075434,17 L4.29227342,17 C4.01613105,17 3.79227342,16.7761424 3.79227342,16.5 C3.79227342,16.4223775 3.81034597,16.3458209 3.84505982,16.2763932 L8.05269483,7.8611232 C8.17618945,7.61413395 8.47652597,7.51402178 8.72351522,7.6375164 C8.82027892,7.68589825 8.89874017,7.7643595 8.94712202,7.8611232 Z" id="Triangle-Copy" fill="#FFFFFF"></path>
        <path d="M8.94714237,10.0907463 L12.0399658,16.2763932 C12.1634604,16.5233825 12.0633483,16.823719 11.816359,16.9472136 C11.7469313,16.9819275 11.6703748,17 11.5927522,17 L5.40710533,17 C5.13096295,17 4.90710533,16.7761424 4.90710533,16.5 C4.90710533,16.4223775 4.92517787,16.3458209 4.95989173,16.2763932 L8.05271518,10.0907463 C8.1762098,9.84375706 8.47654632,9.74364489 8.72353557,9.86713951 C8.82029927,9.91552136 8.89876052,9.99398261 8.94714237,10.0907463 Z" id="Triangle" fill="#000000"></path>
    </g>
</svg>