<?xml version="1.0" encoding="UTF-8"?>
<svg width="17px" height="17px" viewBox="0 0 17 17" version="1.1" xmlns="http://www.w3.org/2000/svg" xmlns:xlink="http://www.w3.org/1999/xlink">
    <title>lv_diantai</title>
    <g id="页面-1" stroke="none" stroke-width="1" fill="none" fill-rule="evenodd">
        <g id="lv_diantai" fill="#000000" fill-rule="nonzero">
            <path d="M8.72353557,9.86713951 C8.82029927,9.91552136 8.89876052,9.99398261 8.94714237,10.0907463 L12.0399658,16.2763932 C12.1634604,16.5233825 12.0633483,16.823719 11.816359,16.9472136 C11.7469313,16.9819275 11.6703748,17 11.5927522,17 L5.40710533,17 C5.13096295,17 4.90710533,16.7761424 4.90710533,16.5 C4.90710533,16.4223775 4.92517787,16.3458209 4.95989173,16.2763932 L8.05271518,10.0907463 C8.1762098,9.84375706 8.47654632,9.74364489 8.72353557,9.86713951 Z M8.5,-1.19904087e-13 C13.1944204,-1.19904087e-13 17,3.80557963 17,8.5 C17,11.5827041 15.3589549,14.2821215 12.9028019,15.7723149 L12.0042173,13.9754798 C13.8060197,12.8199611 15,10.7994151 15,8.5 C15,4.91014913 12.0898509,2 8.5,2 C4.91014913,2 2,4.91014913 2,8.5 C2,10.7994151 3.19398032,12.8199611 4.99578273,13.9754798 L4.09719809,15.7723149 C1.64104516,14.2821215 0,11.5827041 0,8.5 C0,3.80557963 3.80557963,-1.19904087e-13 8.5,-1.19904087e-13 Z M8.5,4 C10.9852814,4 13,6.01471863 13,8.5 C13,10.0157148 12.2506266,11.3564041 11.1021612,12.1717866 L10.189173,10.3430323 C10.6875491,9.88601542 11,9.22949611 11,8.5 C11,7.11928813 9.88071187,6 8.5,6 C7.11928813,6 6,7.11928813 6,8.5 C6,9.22949611 6.31245088,9.88601542 6.81082703,10.3430323 L5.89783886,12.1717866 C4.74937338,11.3564041 4,10.0157148 4,8.5 C4,6.01471863 6.01471863,4 8.5,4 Z" id="形状结合"></path>
        </g>
    </g>
</svg>