
<svg width="17px" height="14px" viewBox="0 0 17 14" version="1.1" xmlns="http://www.w3.org/2000/svg" xmlns:xlink="http://www.w3.org/1999/xlink">
    <!-- Generator: Sketch 48 (47235) - http://www.bohemiancoding.com/sketch -->
    <desc>Created with Sketch.</desc>
    <defs></defs>
    <g id="Page-1" stroke="none" stroke-width="1" fill="none" fill-rule="evenodd">
        <g id="lv_local" fill="#FFFFFF" fill-rule="nonzero">
            <path d="M7.09375,11.152344 L7.09375,9.277344 L1.160156,9.277344 C0.878906,9.277344 0.644531,9.183594 0.453125,8.992188 C0.261719,8.804688 0.167969,8.585938 0.167969,8.328125 L0.167969,1.722656 C0.167969,1.457031 0.261719,1.234375 0.453125,1.050781 C0.644531,0.867188 0.878906,0.777344 1.160156,0.777344 L15.015625,0.777344 C15.292969,0.777344 15.527344,0.867188 15.71875,1.050781 C15.910156,1.234375 16.007812,1.457031 16.007812,1.722656 L16.007812,8.328125 C16.007812,8.585938 15.910156,8.804688 15.71875,8.992188 C15.527344,9.183594 15.292969,9.277344 15.015625,9.277344 L9.078125,9.277344 L9.078125,11.152344 L12.054688,11.152344 C12.324219,11.152344 12.550781,11.246094 12.742188,11.433594 C12.933594,11.621094 13.03125,11.847656 13.03125,12.105469 C13.03125,12.367188 12.933594,12.589844 12.742188,12.769531 C12.550781,12.953125 12.324219,13.046875 12.054688,13.046875 L4.117188,13.046875 C3.851562,13.046875 3.621094,12.953125 3.429688,12.769531 C3.238281,12.589844 3.144531,12.367188 3.144531,12.105469 C3.144531,11.847656 3.238281,11.621094 3.429688,11.433594 C3.621094,11.246094 3.851562,11.152344 4.117188,11.152344 L7.09375,11.152344 Z" id="Shape"></path>
        </g>
    </g>
</svg>