<?xml version="1.0" encoding="UTF-8"?>
<svg xmlns="http://www.w3.org/2000/svg" xmlns:xlink="http://www.w3.org/1999/xlink" width="18pt" height="17pt" viewBox="0 0 18 17" version="1.1">
<g id="theme_color">
<path style=" stroke:none;fill-rule:nonzero;fill:rgb(0%,0%,0%);fill-opacity:1;" d="M 8.09375 12.152344 L 8.09375 10.277344 L 2.160156 10.277344 C 1.878906 10.277344 1.644531 10.183594 1.453125 9.992188 C 1.261719 9.804688 1.167969 9.585938 1.167969 9.328125 L 1.167969 2.722656 C 1.167969 2.457031 1.261719 2.234375 1.453125 2.050781 C 1.644531 1.867188 1.878906 1.777344 2.160156 1.777344 L 16.015625 1.777344 C 16.292969 1.777344 16.527344 1.867188 16.71875 2.050781 C 16.910156 2.234375 17.007812 2.457031 17.007812 2.722656 L 17.007812 9.328125 C 17.007812 9.585938 16.910156 9.804688 16.71875 9.992188 C 16.527344 10.183594 16.292969 10.277344 16.015625 10.277344 L 10.078125 10.277344 L 10.078125 12.152344 L 13.054688 12.152344 C 13.324219 12.152344 13.550781 12.246094 13.742188 12.433594 C 13.933594 12.621094 14.03125 12.847656 14.03125 13.105469 C 14.03125 13.367188 13.933594 13.589844 13.742188 13.769531 C 13.550781 13.953125 13.324219 14.046875 13.054688 14.046875 L 5.117188 14.046875 C 4.851562 14.046875 4.621094 13.953125 4.429688 13.769531 C 4.238281 13.589844 4.144531 13.367188 4.144531 13.105469 C 4.144531 12.847656 4.238281 12.621094 4.429688 12.433594 C 4.621094 12.246094 4.851562 12.152344 5.117188 12.152344 Z M 8.09375 12.152344 "/>
</g>
</svg>
