
<svg width="18px" height="18px" viewBox="0 0 18 18" version="1.1" xmlns="http://www.w3.org/2000/svg" xmlns:xlink="http://www.w3.org/1999/xlink">
    <!-- Generator: Sketch 48 (47235) - http://www.bohemiancoding.com/sketch -->
    <desc>Created with Sketch.</desc>
    <defs></defs>
    <g id="Page-1" stroke="none" stroke-width="1" fill="none" fill-rule="evenodd">
        <path d="M9,18 C4.02943725,18 0,13.9705627 0,9 C0,4.02943725 4.02943725,0 9,0 C13.9705627,0 18,4.02943725 18,9 C18,13.9705627 13.9705627,18 9,18 Z M8.53465887,12.2446443 C8.8259829,12.0914862 9.1740171,12.0914862 9.46534113,12.2446443 L11.6299754,13.3826599 C11.7273057,13.4338294 11.8387897,13.4514868 11.9471685,13.4328984 C12.2193368,13.3862179 12.4021307,13.1277399 12.3554502,12.8555717 L11.8531695,9.92705098 L13.9808644,7.85306112 C14.0596062,7.77630681 14.1108498,7.67573561 14.126662,7.56691709 C14.1663708,7.29364466 13.9770301,7.03992324 13.7037577,7.00021443 L10.7633558,6.57294902 L9.44836804,3.90849288 C9.39970292,3.80988657 9.31988916,3.73007281 9.22128286,3.68140769 C8.97365603,3.55919655 8.67384311,3.66086605 8.55163196,3.90849288 L7.23664424,6.57294902 L4.29624231,7.00021443 C4.1874238,7.01602668 4.08685259,7.06727027 4.01009829,7.14601209 C3.81734769,7.34375388 3.82139384,7.66031051 4.01913563,7.85306112 L6.14683045,9.92705098 L5.64454984,12.8555717 C5.62596142,12.9639505 5.64361875,13.0754345 5.69478829,13.1727648 C5.82328869,13.4171871 6.12560227,13.5111603 6.37002456,13.3826599 L8.53465887,12.2446443 Z" id="Combined-Shape" fill="#FFFFFF"></path>
    </g>
</svg>